<svg xmlns="http://www.w3.org/2000/svg" style="display:none;">
    <symbol id="crown" viewBox="0 0 34 34">
        <path
            d="M5.67329 25.0954L6.07096 26.7043C6.57466 28.796 7.67486 29.8686 9.86199 29.8686H24.138C26.3384 29.8686 27.4253 28.8228 27.9423 26.7043L28.34 25.0954H5.67329ZM5.23587 23.2585H28.7906L31.2826 12.9345L30.1957 12.3043L24.085 16.8094C23.6343 17.1312 23.3294 17.0105 23.0775 16.6485L17.3247 7.85295L16.6885 7.82613L10.8826 16.6887C10.6573 17.0373 10.3922 17.1446 9.94151 16.8228L3.9501 12.3982L2.67759 12.7334L5.23587 23.2585ZM3.16803 15.616C4.91774 15.616 6.3228 14.1814 6.3228 12.3982C6.3228 10.6552 4.91774 9.20713 3.16803 9.20713C1.41833 9.20713 0 10.6418 0 12.3982C0 14.1814 1.43157 15.616 3.16803 15.616ZM17.0067 10.0384C18.7431 10.0384 20.1614 8.60379 20.1614 6.83395C20.1614 5.09092 18.7431 3.64288 17.0067 3.64288C15.2437 3.64288 13.8386 5.07753 13.8386 6.83395C13.8386 8.60379 15.2569 10.0384 17.0067 10.0384ZM30.8319 15.616C32.5685 15.616 34 14.1814 34 12.3982C34 10.6418 32.5817 9.20713 30.8319 9.20713C29.0956 9.20713 27.6772 10.6552 27.6772 12.3982C27.6772 14.1814 29.0956 15.616 30.8319 15.616Z"
            fill="currentColor" />
    </symbol>

    <symbol id="medal" viewBox="0 0 34 34">
        <path
            d="M17.1814 33.317C22.1903 33.317 26.2316 29.2757 26.2316 24.281C26.2316 19.2721 22.1903 15.2308 17.1814 15.2308C12.1867 15.2308 8.14537 19.2721 8.14537 24.281C8.14537 29.2757 12.1867 33.317 17.1814 33.317ZM14.6057 28.9341C14.065 29.3325 13.4958 28.9199 13.7093 28.2938L14.7338 25.2343L12.1155 23.3703C11.6175 23.0003 11.774 22.303 12.457 22.303L15.673 22.3315L16.6549 19.2579C16.854 18.6318 17.5371 18.6318 17.7363 19.2579L18.7182 22.3315L21.9341 22.303C22.6171 22.303 22.7595 23.0145 22.2757 23.3561L19.6573 25.2343L20.6819 28.2938C20.8954 28.9199 20.3261 29.3325 19.7854 28.9341L17.1956 27.0415L14.6057 28.9341ZM8.51535 17.5076C9.90988 15.743 11.8309 14.4054 14.0365 13.7508L7.5904 2.1677L3.84794 7.8739C3.5918 8.24387 3.57757 8.65654 3.80525 9.02651L8.51535 17.5076ZM13.9939 8.89844H20.3831L24.7232 1.21429H9.65374L13.9939 8.89844ZM20.3404 13.7508C22.5603 14.4054 24.4671 15.743 25.8616 17.5076L30.5859 9.02651C30.7994 8.65654 30.7852 8.24387 30.5291 7.8739L26.7865 2.1677L20.3404 13.7508Z"
            fill="currentColor" />
    </symbol>


    <symbol id="theater-masks" viewBox="0 0 34 34">
        <path
            d="M12.7969 25.4617C17.6154 24.1356 19.6777 20.3267 18.3191 15.1918L16.4914 8.21223C15.9929 6.33772 14.781 5.65971 12.9142 6.15825L3.22841 8.78056C1.35184 9.29904 0.657907 10.4955 1.15637 12.4099L2.97429 19.3795C4.31329 24.5045 7.97846 26.7779 12.7969 25.4617ZM11.8782 21.8922C9.83545 22.4306 7.8514 21.7227 6.8056 20.0276C6.60036 19.7185 6.77629 19.4094 7.16724 19.4394C8.46715 19.549 10.0114 19.3196 11.1256 19.0106C12.2203 18.7214 13.6472 18.1431 14.7321 17.3754C15.0546 17.1361 15.3772 17.3055 15.3576 17.7144C15.2892 19.7086 13.9307 21.3138 11.8782 21.8922ZM6.95222 15.3414C6.21918 15.5507 6.12144 16.0493 5.80868 16.0991C5.66208 16.129 5.48615 15.9595 5.39818 15.6704C5.16361 14.8229 5.6914 13.9155 6.53194 13.7061C7.38226 13.4967 8.25213 14.0052 8.46715 14.8229C8.55511 15.1219 8.47692 15.3513 8.32054 15.4111C7.95892 15.5407 7.61683 15.1618 6.95222 15.3414ZM12.9142 13.6962C12.1812 13.9155 12.0834 14.4041 11.7706 14.444C11.6241 14.4739 11.4481 14.3044 11.3602 14.0252C11.1256 13.1877 11.6534 12.2703 12.4939 12.061C13.354 11.8316 14.2141 12.3501 14.4291 13.1777C14.5171 13.4868 14.439 13.7061 14.2826 13.766C13.9307 13.8956 13.5788 13.5067 12.9142 13.6962ZM31.758 11.363L22.082 8.72074C20.3618 8.25211 19.1499 8.77059 18.6514 10.326L18.5341 10.7548L19.6093 14.8428C20.6843 18.9209 19.8048 22.3708 17.3027 24.6042C18.2605 26.2195 19.9611 27.4259 22.2091 28.0341C27.008 29.3403 30.6536 27.067 32.0024 21.942L33.8496 14.9824C34.3383 13.0979 33.6346 11.8715 31.758 11.363ZM21.9061 17.4053C21.2317 17.2358 20.8309 16.5378 21.0167 15.8299C21.2023 15.1419 21.8866 14.7331 22.5609 14.9226C23.2353 15.112 23.636 15.82 23.4601 16.5079C23.2744 17.1959 22.5902 17.5947 21.9061 17.4053ZM27.6433 18.9707C26.9787 18.7912 26.578 18.0833 26.7636 17.3853C26.9395 16.6974 27.6238 16.2986 28.2982 16.488C28.9823 16.6575 29.3732 17.3654 29.1973 18.0634C29.0116 18.7514 28.3274 19.1601 27.6433 18.9707ZM23.5285 22.7995C22.5121 22.5103 21.5347 22.5003 20.2837 22.7795C19.8927 22.8693 19.6581 22.5402 19.8634 22.2112C20.7039 20.8651 22.4045 20.3068 24.0563 20.7754C25.7667 21.2141 26.9298 22.5502 26.9884 24.1455C27.008 24.5444 26.6464 24.7139 26.3531 24.4447C25.3856 23.5473 24.5548 23.0687 23.5285 22.7995Z"
            fill="currentColor" />
    </symbol>

    <symbol id="bolt-shield" viewBox="0 0 34 34">
        <path
            d="M16.4955 31.1588C16.7232 31.1588 17.079 31.0733 17.4347 30.8884C25.5315 26.6479 28.1356 24.5276 28.1356 19.4191V8.68972C28.1356 7.22404 27.5094 6.75446 26.3142 6.2564C24.6493 5.57337 19.3273 3.63811 17.6766 3.06891C17.2924 2.94084 16.894 2.86969 16.4955 2.86969C16.0971 2.86969 15.6987 2.95507 15.3287 3.06891C13.6638 3.60965 8.34179 5.5876 6.6769 6.2564C5.49582 6.74022 4.85547 7.22404 4.85547 8.68972V19.4191C4.85547 24.5276 7.60184 26.406 15.5564 30.8884C15.9263 31.0876 16.2679 31.1588 16.4955 31.1588ZM10.0778 17.4838C10.0778 17.313 10.1632 17.0996 10.3198 16.9146L18.3597 6.8256C18.9715 6.05719 19.9962 6.56947 19.6262 7.52287L16.9794 14.6378H21.9456C22.3298 14.6378 22.6144 14.9081 22.6144 15.2925C22.6144 15.4632 22.529 15.6767 22.3725 15.8616L14.3326 25.9506C13.7207 26.719 12.7104 26.2067 13.0661 25.2676L15.7271 18.1384H10.7466C10.3767 18.1384 10.0778 17.868 10.0778 17.4838Z"
            fill="currentColor" />

    </symbol>

    <symbol id="backpack" viewBox="0 0 34 34">
        <path
            d="M12.9399 33.8251H21.0579C25.6816 33.8251 27.9669 31.4514 27.927 26.704C27.8738 21.2823 27.8473 17.3441 27.7144 14.3905C27.3292 5.70495 24.9243 3.15593 17.0056 3.15593C9.08685 3.15593 6.66871 5.70495 6.28341 14.3905C6.15054 17.3441 6.12397 21.2823 6.07082 26.704C6.03097 31.4514 8.31623 33.8251 12.9399 33.8251ZM12.5546 28.4708C11.412 28.4708 10.6812 27.7155 10.6812 26.5827V19.6234C10.6812 18.477 11.412 17.7217 12.5546 17.7217H21.4565C22.5859 17.7217 23.3166 18.477 23.3166 19.6234V26.5827C23.3166 27.7155 22.5859 28.4708 21.4565 28.4708H12.5546ZM10.6812 22.9143H23.3166V21.3092H10.6812V22.9143ZM17.0056 0C14.4546 0 12.6609 1.7533 12.6609 4.14048H14.5343C14.5343 2.83225 15.544 1.90165 17.0056 1.90165C18.4537 1.90165 19.4769 2.83225 19.4769 4.14048H21.3502C21.3502 1.7533 19.5433 0 17.0056 0Z"
            fill="currentColor" />
    </symbol>

    <symbol id="book-closed" viewBox="0 0 34 34">
        <path
            d="M9.22406 31.709H27.6517C28.2779 31.709 28.7901 31.2109 28.7901 30.5706C28.7901 30.0725 28.4487 29.6313 27.9933 29.4748C26.2003 28.7633 25.8303 26.4438 27.5949 24.6651C28.1356 24.1244 28.7901 23.4272 28.7901 22.0041V5.68243C28.7901 2.72261 27.3245 1.21423 24.3789 1.21423H9.26674C6.32115 1.21423 4.85547 2.70838 4.85547 5.68243V27.3119C4.85547 30.2432 6.33538 31.709 9.22406 31.709ZM9.35211 29.418C7.9149 29.418 7.14649 28.6496 7.14649 27.2977C7.14649 26.017 8.0572 25.1916 9.48019 25.1916H24.08C24.2651 25.1916 24.4358 25.1774 24.5781 25.1489C23.9093 26.6289 24.0232 28.1942 24.7773 29.418H9.35211ZM8.92522 23.0286C8.48409 23.0286 8.11411 22.6588 8.11411 22.2034V4.23098C8.11411 3.77562 8.48409 3.41987 8.92522 3.41987C9.36635 3.41987 9.75056 3.77562 9.75056 4.23098V22.2034C9.75056 22.6588 9.36635 23.0286 8.92522 23.0286Z"
            fill="currentColor" />
    </symbol>

    <symbol id="puzzlepiece" viewBox="0 0 34 34">
        <path
            d="M0 17.5893C0 20.0292 1.69061 21.3688 3.59254 21.3688C4.39088 21.3688 4.98964 21.1415 5.7058 20.687C6.375 20.2684 6.85635 20.5195 6.85635 21.1056V25.5309C6.85635 27.8871 8.07735 29.0951 10.4136 29.0951H13.5483C14.1118 29.0951 14.3584 28.6166 13.9593 27.935C13.5014 27.2053 13.2783 26.5954 13.2783 25.7821C13.2783 23.8446 14.6049 22.1223 17 22.1223C19.3951 22.1223 20.71 23.8446 20.71 25.7821C20.71 26.5954 20.4869 27.2053 20.0407 27.935C19.6416 28.6166 19.8763 29.0951 20.4517 29.0951H23.5864C25.9227 29.0951 27.1437 27.8871 27.1437 25.5309V21.1056C27.1437 20.5195 27.625 20.2684 28.2825 20.687C29.0103 21.1415 29.6091 21.3688 30.3957 21.3688C32.3094 21.3688 34 20.0292 34 17.5893C34 15.1374 32.3094 13.7979 30.3957 13.7979C29.6091 13.7979 29.0103 14.0251 28.2825 14.4796C27.625 14.8982 27.1437 14.6471 27.1437 14.061V9.6357C27.1437 7.29148 25.9227 6.07153 23.5864 6.07153H20.4517C19.8763 6.07153 19.6416 6.56191 20.0407 7.24364C20.4869 7.97322 20.71 8.5832 20.71 9.39649C20.71 11.3341 19.3951 13.0563 17 13.0563C14.6049 13.0563 13.2783 11.3341 13.2783 9.39649C13.2783 8.5832 13.5014 7.97322 13.9593 7.24364C14.3584 6.56191 14.1118 6.07153 13.5483 6.07153H10.4136C8.07735 6.07153 6.85635 7.29148 6.85635 9.6357V14.061C6.85635 14.6471 6.375 14.8982 5.7058 14.4796C4.98964 14.0251 4.39088 13.7979 3.59254 13.7979C1.69061 13.7979 0 15.1374 0 17.5893Z"
            fill="currentColor" />
    </symbol>

    <symbol id="light-beacon-max" viewBox="0 0 34 34">
        <path
            d="M27.7626 30.0014C28.4029 30.0014 28.9294 29.4892 28.9294 28.863C28.9294 28.2227 28.4029 27.6962 27.7626 27.6962H26.0265V18.2618C26.0265 13.0679 22.0279 9.05503 16.834 9.05503C11.6543 9.05503 7.65569 13.0679 7.65569 18.2618V27.6962H5.89118C5.26507 27.6962 4.76702 28.2227 4.76702 28.863C4.76702 29.4892 5.26507 30.0014 5.89118 30.0014H27.7626ZM18.0293 18.3045V27.6962H15.6671V18.3045C15.6671 17.65 16.1794 17.1091 16.834 17.1091C17.4885 17.1091 18.0293 17.65 18.0293 18.3045ZM3.94168 19.2863C4.6105 19.2863 5.19391 18.7314 5.19391 18.0768C5.19391 17.3937 4.6105 16.8388 3.94168 16.8388H1.20954C0.554966 16.8388 0 17.4079 0 18.0768C0 18.7172 0.554966 19.2863 1.20954 19.2863H3.94168ZM6.85882 9.82345C7.32841 10.293 8.11105 10.3073 8.58064 9.82345C9.06445 9.33964 9.05022 8.57121 8.58064 8.10164L6.6596 6.16636C6.20425 5.68255 5.40736 5.68255 4.92355 6.16636C4.45396 6.65018 4.45396 7.40437 4.92355 7.88818L6.85882 9.82345ZM15.6102 5.1845C15.6102 5.8533 16.1652 6.4225 16.834 6.4225C17.517 6.4225 18.072 5.8533 18.072 5.1845V2.45236C18.072 1.78355 17.5028 1.21436 16.834 1.21436C16.1652 1.21436 15.6102 1.78355 15.6102 2.45236V5.1845ZM25.0731 8.10164C24.6035 8.57121 24.5893 9.33964 25.0731 9.82345C25.5712 10.3073 26.3253 10.293 26.7949 9.82345L28.7444 7.88818C29.214 7.40437 29.214 6.65018 28.7444 6.16636C28.2463 5.68255 27.4922 5.68255 27.0226 6.16636L25.0731 8.10164ZM32.4443 19.2863C33.113 19.2863 33.6822 18.7172 33.6822 18.0768C33.6822 17.4079 33.113 16.8388 32.4443 16.8388H29.7121C29.0575 16.8388 28.4882 17.3937 28.4882 18.0768C28.4882 18.7314 29.0575 19.2863 29.7121 19.2863H32.4443Z"
            fill="currentColor" />
    </symbol>
</svg>