<svg xmlns="http://www.w3.org/2000/svg" style="display:none;">
    <symbol id="zapier" viewBox="0 0 56 26">
        <path
            d="M0 19.9996L5.74842 11.0549H0.680976C0.638032 10.7972 0.619627 10.515 0.619627 10.2021C0.619627 9.90153 0.638032 9.62545 0.680976 9.37392H8.88336L8.98766 9.64999L3.19629 18.6131H8.6257C8.66864 18.8953 8.68705 19.1898 8.68705 19.4843C8.68705 19.7665 8.66864 20.0364 8.6257 20.2941H0.104294L0 19.9996Z"
            fill="currentColor" />
        <path
            d="M16.5889 13.0979C16.5889 12.2575 16.3741 11.6808 15.9508 11.3495C15.5275 11.0243 14.9079 10.8587 14.0981 10.8587C13.6012 10.8587 13.1349 10.8955 12.7055 10.9753C12.2699 11.055 11.8527 11.1532 11.4355 11.282C11.1656 10.8157 11.0306 10.2513 11.0306 9.60103C11.5153 9.44766 12.0429 9.32496 12.6257 9.23907C13.2085 9.15318 13.7668 9.11024 14.3067 9.11024C15.7238 9.11024 16.8036 9.43539 17.5459 10.0796C18.2821 10.7237 18.6563 11.7605 18.6563 13.1777V20.012C18.1594 20.1224 17.5582 20.2451 16.8465 20.3617C16.1349 20.4844 15.411 20.5396 14.6748 20.5396C13.9815 20.5396 13.3496 20.4783 12.7914 20.3494C12.2331 20.2206 11.7545 20.0181 11.3619 19.7298C10.9693 19.4476 10.6687 19.0856 10.4539 18.6439C10.2392 18.2022 10.1349 17.6685 10.1349 17.0488C10.1349 16.4415 10.2576 15.9016 10.5092 15.4415C10.7546 14.9814 11.092 14.5949 11.5214 14.2942C11.9447 13.9875 12.4355 13.7605 12.9938 13.6133C13.5459 13.466 14.1288 13.3863 14.7423 13.3863C15.1962 13.3863 15.5705 13.3986 15.8588 13.417C16.1472 13.4354 16.3925 13.466 16.595 13.4906V13.0979H16.5889ZM16.5889 15.1654C16.3741 15.1347 16.1042 15.1102 15.7791 15.0795C15.4539 15.0488 15.1778 15.0366 14.9508 15.0366C14.0674 15.0366 13.3987 15.2022 12.9386 15.5274C12.4785 15.8525 12.2453 16.3494 12.2453 17.0182C12.2453 17.4415 12.3251 17.7789 12.4785 18.0182C12.6318 18.2574 12.8282 18.4415 13.0613 18.5703C13.2944 18.6991 13.5521 18.7789 13.8404 18.8034C14.1226 18.8341 14.3926 18.8464 14.6502 18.8464C14.9754 18.8464 15.3128 18.828 15.6625 18.7911C16.0122 18.7543 16.3189 18.7053 16.5889 18.6316V15.1654Z"
            fill="currentColor" />
        <path
            d="M20.9569 9.37439C21.098 9.34371 21.2452 9.32531 21.3925 9.31304C21.5397 9.30077 21.6931 9.29463 21.8526 9.29463C21.9937 9.29463 22.1409 9.30077 22.3004 9.31304C22.4538 9.32531 22.6072 9.34985 22.7483 9.37439C22.7605 9.40506 22.779 9.49095 22.8035 9.63819C22.8219 9.78543 22.8464 9.94493 22.8648 10.1167C22.8832 10.2885 22.9078 10.448 22.9262 10.6075C22.9446 10.767 22.9569 10.8652 22.9569 10.9081C23.098 10.6811 23.2697 10.4603 23.4661 10.2455C23.6624 10.0308 23.9016 9.84064 24.1777 9.66886C24.4538 9.49709 24.7667 9.36212 25.1164 9.26396C25.466 9.1658 25.8525 9.11672 26.2759 9.11672C26.9139 9.11672 27.509 9.22101 28.055 9.43574C28.601 9.65046 29.0672 9.97561 29.4599 10.4235C29.8525 10.8713 30.1531 11.4419 30.374 12.129C30.5948 12.8161 30.7053 13.632 30.7053 14.5707C30.7053 16.448 30.1961 17.9142 29.1838 18.9694C28.1654 20.0246 26.7298 20.5584 24.871 20.5584C24.5581 20.5584 24.2391 20.5399 23.9139 20.497C23.5888 20.4541 23.3004 20.3988 23.0612 20.3252V25.3313C22.8894 25.362 22.7115 25.3804 22.5152 25.3927C22.325 25.4049 22.1471 25.4111 21.9937 25.4111C21.8403 25.4111 21.6624 25.4049 21.4722 25.3927C21.282 25.3804 21.1041 25.3559 20.9507 25.3313V9.37439H20.9569ZM23.0673 18.5093C23.3372 18.6074 23.6133 18.6811 23.8955 18.724C24.1777 18.767 24.5458 18.7854 25.0059 18.7854C25.5151 18.7854 25.9875 18.7056 26.4108 18.54C26.8341 18.3743 27.2022 18.1228 27.509 17.7854C27.8157 17.4418 28.055 17.0124 28.2329 16.497C28.4108 15.9817 28.4967 15.3621 28.4967 14.6566C28.4967 13.5216 28.2881 12.6198 27.8709 11.9511C27.4538 11.2823 26.7667 10.9511 25.8157 10.9511C25.4599 10.9511 25.1225 11.0124 24.7912 11.1412C24.4661 11.2701 24.1716 11.4603 23.92 11.7179C23.6624 11.9756 23.4599 12.2946 23.3004 12.6872C23.1409 13.0799 23.0673 13.54 23.0673 14.0799V18.5093Z"
            fill="currentColor" />
        <path
            d="M33.331 11.0304H31.9445C31.9138 10.9138 31.8954 10.785 31.8832 10.6377C31.8709 10.4905 31.8648 10.3432 31.8648 10.2021C31.8648 10.061 31.8709 9.9138 31.8832 9.76656C31.8954 9.61932 31.92 9.48435 31.9445 9.37392H35.3985V20.3002C35.2451 20.3309 35.0672 20.3493 34.877 20.3616C34.6868 20.3738 34.5089 20.38 34.3555 20.38C34.2144 20.38 34.0488 20.3738 33.8525 20.3616C33.6623 20.3493 33.4844 20.3248 33.331 20.3002V11.0304Z"
            fill="currentColor" />
        <path
            d="M39.9322 15.3557C39.9628 16.5459 40.2696 17.4232 40.8585 17.9754C41.4475 18.5275 42.3187 18.8036 43.4659 18.8036C44.472 18.8036 45.4352 18.6257 46.3432 18.2698C46.4597 18.4846 46.5518 18.7422 46.6192 19.049C46.6929 19.3557 46.7297 19.6563 46.7481 19.9569C46.2818 20.1533 45.7665 20.3066 45.2021 20.4048C44.6438 20.5029 44.018 20.552 43.3371 20.552C42.3432 20.552 41.4904 20.4109 40.7788 20.1349C40.0671 19.8588 39.4843 19.4661 39.0242 18.9631C38.5641 18.46 38.2267 17.8649 38.0119 17.1717C37.7972 16.4846 37.6929 15.73 37.6929 14.9018C37.6929 14.092 37.7972 13.3374 37.9997 12.6318C38.2021 11.9263 38.5211 11.319 38.9445 10.7975C39.3678 10.2822 39.9076 9.86499 40.5518 9.56438C41.196 9.25763 41.9628 9.10426 42.8401 9.10426C43.5947 9.10426 44.2512 9.23309 44.8217 9.49076C45.3922 9.74843 45.8646 10.0981 46.2511 10.546C46.6315 10.9938 46.926 11.5276 47.1223 12.141C47.3186 12.7607 47.4229 13.4294 47.4229 14.1533C47.4229 14.3496 47.4168 14.5643 47.3984 14.7791C47.3861 14.9999 47.3677 15.1901 47.3554 15.3435H39.9322V15.3557ZM45.3432 13.7791C45.3432 13.3803 45.288 12.9999 45.1837 12.638C45.0794 12.276 44.9199 11.9631 44.7174 11.6932C44.5088 11.4233 44.2512 11.2085 43.9321 11.0429C43.6131 10.8773 43.2328 10.7975 42.791 10.7975C41.926 10.7975 41.2635 11.0613 40.7972 11.5828C40.3371 12.1104 40.0549 12.8404 39.9567 13.7791H45.3432Z"
            fill="currentColor" />
        <path
            d="M49.7542 9.37392C49.9076 9.34325 50.061 9.32484 50.2021 9.31258C50.3432 9.30031 50.4904 9.29417 50.6499 9.29417C50.8033 9.29417 50.9628 9.30031 51.1162 9.31258C51.2695 9.32484 51.4168 9.34938 51.5395 9.37392C51.5824 9.58865 51.6254 9.86472 51.6683 10.2144C51.7113 10.5641 51.7297 10.8586 51.7297 11.0978C52.0303 10.6132 52.4229 10.196 52.9137 9.84018C53.4045 9.48435 54.0303 9.30644 54.7971 9.30644C54.9137 9.30644 55.0303 9.31257 55.1468 9.31871C55.2695 9.32484 55.3677 9.33711 55.4536 9.34938C55.4842 9.47822 55.5026 9.61319 55.5149 9.75429C55.5272 9.89539 55.5333 10.0426 55.5333 10.2021C55.5333 10.3739 55.521 10.5518 55.5026 10.7359C55.4842 10.9199 55.4536 11.0978 55.429 11.2696C55.3125 11.2389 55.1959 11.2267 55.0793 11.2267C54.9566 11.2267 54.8646 11.2267 54.791 11.2267C54.4106 11.2267 54.0425 11.2819 53.6928 11.3862C53.3431 11.4905 53.0303 11.6807 52.7542 11.9506C52.4781 12.2205 52.2573 12.5886 52.0916 13.061C51.926 13.5273 51.8462 14.1346 51.8462 14.8708V20.3002C51.6929 20.3309 51.5149 20.3493 51.3248 20.3616C51.1346 20.3738 50.9567 20.38 50.8033 20.38C50.6499 20.38 50.472 20.3738 50.2818 20.3616C50.0916 20.3493 49.9076 20.3248 49.7358 20.3002V9.37392H49.7542Z"
            fill="currentColor" />
        <path
            d="M37.4045 2.94476H35.3432L36.8033 1.48465C36.6867 1.32514 36.5579 1.17177 36.4229 1.03067C36.2818 0.889564 36.1346 0.760731 35.9689 0.650302L34.5088 2.11041V0.0490794C34.3186 0.0184048 34.1223 0 33.9199 0H33.9137C33.7113 0 33.515 0.0184048 33.3248 0.0490794V2.11041L31.8647 0.650302C31.7052 0.766865 31.5518 0.895699 31.4107 1.03067C31.2696 1.17177 31.1469 1.31901 31.0303 1.48465L32.4966 2.94476H30.4352C30.4352 2.94476 30.3862 3.33126 30.3862 3.53372C30.3862 3.73617 30.4046 3.93249 30.4352 4.12267H32.4966L31.0365 5.58278C31.2635 5.9018 31.5457 6.184 31.8708 6.41713L33.3309 4.95702V7.01835C33.5211 7.04903 33.7174 7.06743 33.9199 7.06743H33.926C34.1285 7.06743 34.3248 7.04903 34.515 7.01835V4.95702L35.9751 6.41713C36.1346 6.30057 36.288 6.17173 36.4291 6.03676C36.5702 5.89566 36.699 5.74842 36.8094 5.58278L35.3493 4.12267H37.4106C37.4413 3.93249 37.4597 3.73617 37.4597 3.53372V3.52758C37.4536 3.33126 37.4413 3.13495 37.4045 2.94476ZM34.8033 3.53985C34.8033 3.80365 34.7542 4.05518 34.6683 4.28831C34.4352 4.3742 34.1837 4.42328 33.9199 4.42328C33.6561 4.42328 33.4045 4.3742 33.1714 4.28831C33.0855 4.05518 33.0364 3.80365 33.0364 3.53985V3.53372C33.0364 3.26991 33.0855 3.01838 33.1714 2.78526C33.4045 2.69937 33.6561 2.65029 33.9199 2.65029C34.1837 2.65029 34.4352 2.69937 34.6683 2.78526C34.7542 3.01838 34.8033 3.26991 34.8033 3.53985Z"
            fill="currentColor" />
    </symbol>

    <symbol id="spotify" viewBox="0 0 82 28">
        <g clip-path="url(#clip0_109_57)">
            <path
                d="M12.2942 1.79593C5.5287 1.79593 0.0439453 7.28054 0.0439453 14.046C0.0439453 20.8118 5.5287 26.2959 12.2942 26.2959C19.0604 26.2959 24.5446 20.8118 24.5446 14.046C24.5446 7.28098 19.0604 1.79651 12.294 1.79651L12.2942 1.79593ZM17.9121 19.4641C17.6926 19.8239 17.2216 19.938 16.8617 19.7171C13.9855 17.9603 10.3647 17.5624 6.10053 18.5366C5.68962 18.6302 5.28002 18.3728 5.1864 17.9617C5.09234 17.5507 5.34877 17.1411 5.76071 17.0474C10.4272 15.9813 14.4299 16.4404 17.659 18.4137C18.0188 18.6346 18.1329 19.1042 17.9121 19.4641ZM19.4115 16.1285C19.135 16.5779 18.5469 16.7198 18.0978 16.4433C14.805 14.4193 9.78556 13.8332 5.89076 15.0154C5.38564 15.168 4.85214 14.8833 4.69884 14.3791C4.5467 13.874 4.83152 13.3415 5.33576 13.1879C9.78468 11.838 15.3155 12.4919 19.0969 14.8156C19.546 15.0921 19.6879 15.6801 19.4115 16.1286V16.1285ZM19.5402 12.6551C15.592 10.3101 9.07798 10.0944 5.3084 11.2385C4.70308 11.4221 4.06294 11.0804 3.8795 10.4751C3.69606 9.86946 4.03749 9.22976 4.64325 9.04574C8.97046 7.73211 16.164 7.98592 20.7096 10.6844C21.2552 11.0075 21.4337 11.7107 21.1104 12.2545C20.7886 12.7989 20.0835 12.9784 19.5408 12.6551H19.5402ZM33.3728 13.1045C31.2575 12.6001 30.8816 12.2461 30.8816 11.5023C30.8816 10.7995 31.5428 10.3266 32.5272 10.3266C33.481 10.3266 34.426 10.6857 35.4178 11.425C35.4471 11.4474 35.4851 11.4563 35.5217 11.4505C35.5597 11.4449 35.5919 11.4246 35.6138 11.394L36.6466 9.93822C36.689 9.87824 36.6773 9.79559 36.6203 9.7498C35.4398 8.80291 34.1115 8.34255 32.558 8.34255C30.2745 8.34255 28.6785 9.71309 28.6785 11.674C28.6785 13.7768 30.0551 14.5214 32.4336 15.0962C34.4567 15.5624 34.799 15.953 34.799 16.651C34.799 17.4249 34.1086 17.9061 32.9968 17.9061C31.7622 17.9061 30.7543 17.4892 29.6279 16.515C29.6001 16.4901 29.5621 16.4799 29.527 16.4813C29.4889 16.4843 29.4553 16.5018 29.4319 16.5296L28.2733 17.9076C28.225 17.9661 28.2309 18.051 28.2865 18.1007C29.5972 19.271 31.2092 19.8883 32.95 19.8883C35.4105 19.8883 37.0006 18.5439 37.0006 16.4623C37.005 14.7059 35.9532 13.7331 33.3772 13.1064L33.3728 13.1045ZM42.5682 11.0185C41.5018 11.0185 40.627 11.4386 39.9043 12.2995V11.3305C39.9043 11.254 39.8429 11.1917 39.7668 11.1917H37.8725C37.7964 11.1917 37.7349 11.254 37.7349 11.3305V22.0972C37.7349 22.1732 37.7964 22.2361 37.8725 22.2361H39.7668C39.8429 22.2361 39.9043 22.1732 39.9043 22.0972V18.699C40.627 19.5079 41.5018 19.9044 42.5682 19.9044C44.5503 19.9044 46.5573 18.3786 46.5573 15.4619C46.5602 12.5445 44.5532 11.0184 42.5696 11.0184L42.5682 11.0185ZM44.3543 15.4619C44.3543 16.9465 43.44 17.9837 42.1293 17.9837C40.8347 17.9837 39.8575 16.8997 39.8575 15.4619C39.8575 14.0239 40.8347 12.9402 42.1293 12.9402C43.4181 12.9401 44.3543 14.0004 44.3543 15.4617V15.4619ZM51.6992 11.0185C49.1465 11.0185 47.1468 12.984 47.1468 15.4936C47.1468 17.9763 49.1334 19.9205 51.6685 19.9205C54.2299 19.9205 56.2354 17.9617 56.2354 15.4619C56.2354 12.9705 54.2431 11.0188 51.6992 11.0188V11.0185ZM51.6992 17.9983C50.3417 17.9983 49.3177 16.907 49.3177 15.4611C49.3177 14.0087 50.3066 12.9547 51.6685 12.9547C53.0348 12.9547 54.0646 14.0456 54.0646 15.4929C54.0646 16.945 53.0699 17.9983 51.6992 17.9983ZM61.686 11.1917H59.6014V9.06095C59.6014 8.98459 59.54 8.92228 59.4639 8.92228H57.5695C57.4935 8.92228 57.4306 8.98459 57.4306 9.06095V11.1917H56.5207C56.4446 11.1917 56.3832 11.254 56.3832 11.3305V12.9582C56.3832 13.0346 56.4446 13.0971 56.5207 13.0971H57.4306V17.3093C57.4306 19.0106 58.2776 19.8736 59.9496 19.8736C60.6283 19.8736 61.1915 19.7332 61.7225 19.4319C61.7664 19.4085 61.7928 19.3617 61.7928 19.3119V17.7613C61.7928 17.7145 61.7679 17.6692 61.7269 17.6443C61.686 17.618 61.6348 17.6165 61.5923 17.6384C61.2281 17.8213 60.8756 17.9061 60.4806 17.9061C59.8735 17.9061 59.6014 17.6297 59.6014 17.0123V13.0978H61.686C61.762 13.0978 61.8235 13.0355 61.8235 12.959V11.3314C61.8264 11.2549 61.765 11.1926 61.6874 11.1926L61.686 11.1917ZM68.9475 11.2001V10.9384C68.9475 10.1685 69.243 9.82514 69.9042 9.82514C70.2991 9.82514 70.6166 9.90355 70.972 10.022C71.0159 10.0358 71.0613 10.0289 71.0964 10.0027C71.133 9.97654 71.1534 9.93456 71.1534 9.89009V8.29414C71.1534 8.23313 71.1154 8.17916 71.0554 8.16116C70.6809 8.04955 70.2011 7.93501 69.4814 7.93501C67.7333 7.93501 66.8074 8.92008 66.8074 10.7827V11.1835H65.8975C65.8214 11.1835 65.7585 11.2458 65.7585 11.3222V12.9582C65.7585 13.0346 65.8214 13.0971 65.8975 13.0971H66.8074V19.5928C66.8074 19.6703 66.8703 19.7318 66.9463 19.7318H68.8392C68.9168 19.7318 68.9782 19.6703 68.9782 19.5928V13.0975H70.7468L73.4559 19.5928C73.1488 20.2745 72.8459 20.4105 72.4334 20.4105C72.0999 20.4105 71.7474 20.311 71.389 20.1136C71.3553 20.096 71.3144 20.0931 71.2792 20.1033C71.2427 20.1165 71.212 20.1428 71.1973 20.1779L70.5551 21.5866C70.5244 21.6539 70.5508 21.7314 70.6151 21.7666C71.2851 22.1293 71.8893 22.2844 72.6368 22.2844C74.0352 22.2844 74.8091 21.632 75.4893 19.8795L78.7748 11.3896C78.7924 11.3469 78.7865 11.2987 78.7602 11.2608C78.7353 11.2232 78.6929 11.2005 78.6476 11.2005H76.6756C76.6157 11.2005 76.563 11.2381 76.544 11.2935L74.5238 17.0621L72.312 11.2897C72.2915 11.236 72.2403 11.2005 72.1833 11.2005H68.9475V11.2001ZM64.7374 11.1917H62.8431C62.767 11.1917 62.7041 11.254 62.7041 11.3305V19.5928C62.7041 19.6703 62.767 19.7318 62.8431 19.7318H64.7374C64.8135 19.7318 64.8764 19.6703 64.8764 19.5928V11.3311C64.8764 11.2546 64.815 11.1923 64.7374 11.1923V11.1917ZM63.8012 7.42945C63.0508 7.42945 62.4423 8.03682 62.4423 8.78711C62.4423 9.53784 63.0508 10.1459 63.8012 10.1459C64.5517 10.1459 65.1587 9.53784 65.1587 8.78711C65.1587 8.03697 64.5502 7.42945 63.8012 7.42945ZM80.3927 13.8484C79.6437 13.8484 79.0601 13.2464 79.0601 12.5154C79.0601 11.7845 79.6511 11.1756 80.4 11.1756C81.149 11.1756 81.7327 11.7774 81.7327 12.5078C81.7327 13.2388 81.1417 13.8484 80.3927 13.8484ZM80.4 11.3082C79.7169 11.3082 79.2005 11.8509 79.2005 12.5154C79.2005 13.1797 79.714 13.7151 80.3927 13.7151C81.0759 13.7151 81.5922 13.1728 81.5922 12.5078C81.5922 11.8436 81.0788 11.3082 80.4 11.3082ZM80.6955 12.6449L81.0729 13.1727H80.754L80.4147 12.6885H80.1236V13.1727H79.8573V11.7736H80.4805C80.8067 11.7736 81.0203 11.94 81.0203 12.2199C81.0217 12.4493 80.8886 12.5895 80.697 12.6449H80.6955ZM80.4702 12.0137H80.1236V12.4562H80.4702C80.6429 12.4562 80.7467 12.3715 80.7467 12.2347C80.7467 12.0908 80.6429 12.0137 80.4702 12.0137Z"
                fill="currentColor" />
        </g>
        <defs>
            <clipPath id="clip0_109_57">
                <rect width="81.6667" height="28" fill="white" />
            </clipPath>
        </defs>
    </symbol>

    <symbol id="zoom" viewBox="0 0 58 28">

        <g clip-path="url(#clip0_109_61)">
            <path fill-rule="evenodd" clip-rule="evenodd"
                d="M46.4959 12.0165C46.7142 12.3932 46.7856 12.8217 46.8092 13.3034L46.8402 13.9454V18.4352L46.8718 19.078C46.9352 20.1277 47.7093 20.9038 48.7671 20.9698L49.4064 21.0015V13.9454L49.4381 13.3034C49.4644 12.827 49.5351 12.3905 49.7568 12.0111C49.9826 11.6221 50.3069 11.2993 50.697 11.0752C51.087 10.8511 51.5292 10.7335 51.9791 10.7343C52.4289 10.7352 52.8707 10.8543 53.2599 11.0798C53.6492 11.3054 53.9723 11.6294 54.1967 12.0192C54.415 12.3959 54.483 12.8324 54.5093 13.3034L54.541 13.9434V18.4352L54.5726 19.078C54.6387 20.133 55.4067 20.9092 56.4679 20.9698L57.1072 21.0015V13.3034C57.1072 11.9421 56.5666 10.6366 55.6043 9.67389C54.6419 8.71116 53.3366 8.17004 51.9754 8.1695C51.2468 8.16873 50.5265 8.32345 49.8625 8.62333C49.1985 8.9232 48.6061 9.36132 48.125 9.90842C47.6436 9.36153 47.0512 8.92352 46.3873 8.62356C45.7234 8.3236 45.0031 8.16858 44.2746 8.16883C43.2087 8.16883 42.2197 8.49222 41.4004 9.05075C40.9005 8.49289 39.7821 8.16883 39.14 8.16883V21.0015L39.7821 20.9698C40.856 20.8991 41.6322 20.1438 41.674 19.078L41.7083 18.4352V13.9454L41.74 13.3034C41.7669 12.819 41.8343 12.3932 42.0533 12.0138C42.2793 11.625 42.6034 11.3023 42.9932 11.0779C43.383 10.8535 43.8248 10.7353 44.2746 10.7351C44.7247 10.7352 45.1668 10.8536 45.5567 11.0785C45.9466 11.3035 46.2705 11.6269 46.4959 12.0165ZM2.56626 20.9705L3.20833 21.0015H12.8327L12.801 20.3614C12.7141 19.3064 11.9669 18.5356 10.9085 18.4669L10.2664 18.4352H4.49247L12.1906 10.7344L12.1589 10.095C12.1091 9.02919 11.3302 8.25911 10.2664 8.20049L9.62432 8.17152L0 8.16883L0.0316656 8.8109C0.115883 9.85586 0.873836 10.6428 1.92352 10.7034L2.56626 10.7351H8.34018L0.642071 18.4359L0.673736 19.078C0.737068 20.1357 1.50041 20.9018 2.56626 20.9698V20.9705ZM36.6209 10.0472C37.2169 10.643 37.6896 11.3504 38.0121 12.1289C38.3346 12.9074 38.5006 13.7418 38.5006 14.5845C38.5006 15.4272 38.3346 16.2616 38.0121 17.0401C37.6896 17.8186 37.2169 18.526 36.6209 19.1218C35.417 20.3248 33.7846 21.0005 32.0827 21.0005C30.3807 21.0005 28.7483 20.3248 27.5444 19.1218C25.0387 16.6161 25.0387 12.5528 27.5444 10.0472C28.1397 9.45161 28.8466 8.97911 29.6246 8.6567C30.4026 8.33429 31.2365 8.16828 32.0786 8.16815C32.9221 8.16757 33.7575 8.33329 34.5369 8.65583C35.3163 8.97837 36.0245 9.4514 36.6209 10.0479V10.0472ZM34.8052 11.8643C35.5269 12.5865 35.9323 13.5658 35.9323 14.5868C35.9323 15.6079 35.5269 16.5872 34.8052 17.3094C34.083 18.0311 33.1037 18.4365 32.0827 18.4365C31.0616 18.4365 30.0823 18.0311 29.3601 17.3094C28.6384 16.5872 28.233 15.6079 28.233 14.5868C28.233 13.5658 28.6384 12.5865 29.3601 11.8643C30.0823 11.1426 31.0616 10.7372 32.0827 10.7372C33.1037 10.7372 34.083 11.1426 34.8052 11.8643ZM18.612 8.16815C19.4542 8.16837 20.2881 8.33449 21.0661 8.65701C21.844 8.97954 22.5509 9.45216 23.1462 10.0479C25.6525 12.5528 25.6525 16.6168 23.1462 19.1218C21.9422 20.3248 20.3099 21.0005 18.6079 21.0005C16.9059 21.0005 15.2736 20.3248 14.0696 19.1218C11.564 16.6161 11.564 12.5528 14.0696 10.0472C14.665 9.45161 15.3719 8.97911 16.1499 8.6567C16.9279 8.33429 17.7617 8.16828 18.6039 8.16815H18.612ZM21.3305 11.8629C22.0524 12.5852 22.458 13.5646 22.458 14.5858C22.458 15.607 22.0524 16.5865 21.3305 17.3087C20.6082 18.0305 19.629 18.4359 18.6079 18.4359C17.5869 18.4359 16.6076 18.0305 15.8854 17.3087C15.1636 16.5865 14.7582 15.6072 14.7582 14.5862C14.7582 13.5651 15.1636 12.5859 15.8854 11.8636C16.6076 11.1419 17.5869 10.7365 18.6079 10.7365C19.629 10.7365 20.6082 11.1419 21.3305 11.8636V11.8629Z"
                fill="currentColor" />
        </g>
        <defs>
            <clipPath id="clip0_109_61">
                <rect width="57.1666" height="28" fill="white" />
            </clipPath>
        </defs>

    </symbol>

    <symbol id="amazon" viewBox="0 0 65 28">

        <g clip-path="url(#clip0_109_65)">
            <path fill-rule="evenodd" clip-rule="evenodd"
                d="M39.6271 22.0535C35.915 24.7896 30.5346 26.2494 25.9021 26.2494C19.4067 26.2494 13.5591 23.847 9.13518 19.8513C8.78761 19.5371 9.09903 19.1089 9.51612 19.3535C14.2904 22.1313 20.1936 23.8025 26.2914 23.8025C30.4039 23.8025 34.9279 22.9516 39.0876 21.1859C39.716 20.919 40.2416 21.5975 39.6271 22.0535Z"
                fill="currentColor" />
            <path fill-rule="evenodd" clip-rule="evenodd"
                d="M41.1703 20.2878C40.6976 19.6817 38.0338 20.0014 36.8382 20.1433C36.4739 20.1877 36.4183 19.8708 36.7464 19.6427C38.868 18.1496 42.3493 18.5806 42.7553 19.0811C43.1612 19.5844 42.6496 23.074 40.6559 24.7396C40.3501 24.9954 40.0581 24.8591 40.1943 24.5199C40.642 23.4021 41.6458 20.8968 41.1703 20.2878Z"
                fill="currentColor" />
            <path fill-rule="evenodd" clip-rule="evenodd"
                d="M36.9224 9.10212V7.65066C36.9224 7.43099 37.0893 7.28362 37.2895 7.28362H43.7877C43.9963 7.28362 44.1631 7.43377 44.1631 7.65066V8.89358C44.1603 9.10212 43.9851 9.37462 43.6737 9.80561L40.3064 14.6132C41.5577 14.5827 42.8785 14.769 44.0129 15.4085C44.2687 15.5531 44.3383 15.7644 44.3577 15.9729V17.5217C44.3577 17.7331 44.1242 17.9805 43.8795 17.8526C41.8802 16.8043 39.2248 16.6903 37.0142 17.8637C36.789 17.9861 36.5526 17.7414 36.5526 17.5301V16.0591C36.5526 15.8228 36.5554 15.4196 36.7918 15.0609L40.6929 9.46638H37.2978C37.0893 9.46638 36.9224 9.31901 36.9224 9.10212Z"
                fill="currentColor" />
            <path fill-rule="evenodd" clip-rule="evenodd"
                d="M13.2179 18.1585H11.241C11.0519 18.1446 10.9017 18.0028 10.8878 17.8221V7.6757C10.8878 7.47272 11.0574 7.31145 11.2688 7.31145H13.1123C13.3041 7.31978 13.4571 7.46716 13.471 7.65068V8.97702H13.5071C13.9882 7.69517 14.8919 7.09734 16.1098 7.09734C17.3471 7.09734 18.1201 7.69517 18.6762 8.97702C19.1545 7.69517 20.2417 7.09734 21.4068 7.09734C22.2354 7.09734 23.1419 7.43935 23.6952 8.20679C24.3208 9.06043 24.1929 10.3006 24.1929 11.3878L24.1901 17.7915C24.1901 17.9944 24.0205 18.1585 23.8092 18.1585H21.835C21.6376 18.1446 21.4791 17.9861 21.4791 17.7915V12.4138C21.4791 11.9856 21.518 10.9179 21.4235 10.5119C21.2761 9.83066 20.834 9.63879 20.2612 9.63879C19.7829 9.63879 19.2824 9.95856 19.0794 10.4702C18.8764 10.9818 18.8959 11.8382 18.8959 12.4138V17.7915C18.8959 17.9944 18.7263 18.1585 18.515 18.1585H16.5407C16.3405 18.1446 16.1848 17.9861 16.1848 17.7915L16.1821 12.4138C16.1821 11.2821 16.3683 9.61655 14.9642 9.61655C13.5433 9.61655 13.5989 11.2404 13.5989 12.4138V17.7915C13.5989 17.9944 13.4293 18.1585 13.2179 18.1585Z"
                fill="currentColor" />
            <path fill-rule="evenodd" clip-rule="evenodd"
                d="M49.7575 7.09734C52.6911 7.09734 54.2788 9.61655 54.2788 12.8198C54.2788 15.9146 52.5242 18.3698 49.7575 18.3698C46.8769 18.3698 45.3086 15.8506 45.3086 12.7113C45.3086 9.5526 46.8963 7.09734 49.7575 7.09734ZM49.7742 9.16888C48.3172 9.16888 48.2254 11.1542 48.2254 12.3916C48.2254 13.6317 48.206 16.2788 49.7575 16.2788C51.2896 16.2788 51.3619 14.1433 51.3619 12.842C51.3619 11.9856 51.3258 10.9624 51.0672 10.1504C50.8447 9.44415 50.4026 9.16888 49.7742 9.16888Z"
                fill="currentColor" />
            <path fill-rule="evenodd" clip-rule="evenodd"
                d="M58.0827 18.1585H56.114C55.9166 18.1446 55.7581 17.9861 55.7581 17.7915L55.7553 7.64234C55.772 7.45604 55.9361 7.31145 56.1363 7.31145H57.9687C58.1411 7.31978 58.2829 7.43657 58.3218 7.59507V9.14663H58.358C58.9113 7.75912 59.6871 7.09734 61.0523 7.09734C61.9394 7.09734 62.8041 7.41711 63.3602 8.29299C63.8774 9.10492 63.8774 10.4702 63.8774 11.4517V17.8387C63.8552 18.0167 63.6911 18.1585 63.4965 18.1585H61.5139C61.3332 18.1446 61.183 18.0111 61.1636 17.8387V12.3276C61.1636 11.2182 61.2915 9.5943 59.9262 9.5943C59.4452 9.5943 59.0031 9.91685 58.7834 10.4062C58.5053 11.0263 58.4692 11.6436 58.4692 12.3276V17.7915C58.4664 17.9944 58.294 18.1585 58.0827 18.1585Z"
                fill="currentColor" />
            <path fill-rule="evenodd" clip-rule="evenodd"
                d="M31.7422 13.3119C31.7422 14.0821 31.7617 14.7245 31.3724 15.4085C31.0582 15.9646 30.5577 16.3066 30.0044 16.3066C29.2453 16.3066 28.8004 15.7283 28.8004 14.8746C28.8004 13.1896 30.3102 12.8837 31.7422 12.8837V13.3119ZM33.7359 18.1307C33.6052 18.2475 33.4161 18.2558 33.2688 18.178C32.6126 17.633 32.493 17.3799 32.1343 16.86C31.0499 17.9666 30.2796 18.2975 28.8754 18.2975C27.2099 18.2975 25.9169 17.2715 25.9169 15.2166C25.9169 13.6122 26.7845 12.5195 28.0246 11.9856C29.0979 11.5129 30.5966 11.4295 31.7422 11.2988V11.043C31.7422 10.5731 31.7784 10.0169 31.5003 9.61097C31.2612 9.24671 30.7996 9.09656 30.3909 9.09656C29.6373 9.09656 28.9672 9.48306 28.8032 10.2839C28.7698 10.4618 28.6391 10.637 28.4584 10.6453L26.5425 10.4396C26.3813 10.4034 26.2005 10.2727 26.2478 10.0253C26.6871 7.70071 28.7892 7 30.6689 7C31.631 7 32.8878 7.25581 33.6469 7.98433C34.609 8.88246 34.5173 10.0809 34.5173 11.385V14.4659C34.5173 15.3918 34.901 15.7978 35.2624 16.2983C35.3876 16.4762 35.4154 16.6903 35.2541 16.8238C34.8509 17.1603 34.1335 17.7859 33.7387 18.1362L33.7359 18.1307Z"
                fill="currentColor" />
            <path fill-rule="evenodd" clip-rule="evenodd"
                d="M5.82434 13.3119C5.82434 14.0821 5.84381 14.7245 5.45453 15.4085C5.14032 15.9646 4.6426 16.3066 4.08648 16.3066C3.32738 16.3066 2.88527 15.7282 2.88527 14.8746C2.88527 13.1896 4.39512 12.8837 5.82434 12.8837V13.3119ZM7.81802 18.1307C7.68733 18.2475 7.49825 18.2558 7.35088 18.1779C6.69467 17.633 6.57788 17.3799 6.2164 16.8599C5.13198 17.9666 4.36454 18.2975 2.95756 18.2975C1.29477 18.2975 -0.000976562 17.2715 -0.000976562 15.2166C-0.000976562 13.6122 0.869345 12.5195 2.1067 11.9856C3.18001 11.5129 4.67874 11.4295 5.82434 11.2988V11.043C5.82434 10.573 5.86049 10.0169 5.58521 9.61097C5.3433 9.24671 4.88173 9.09656 4.47576 9.09656C3.72222 9.09656 3.04932 9.48306 2.88527 10.2839C2.8519 10.4618 2.72121 10.637 2.54326 10.6453L0.624655 10.4396C0.46338 10.4034 0.285423 10.2727 0.329912 10.0253C0.772025 7.70071 2.87136 7 4.75104 7C5.71312 7 6.96994 7.25581 7.72904 7.98433C8.69112 8.88245 8.59936 10.0809 8.59936 11.385V14.4659C8.59936 15.3918 8.98309 15.7978 9.34456 16.2983C9.47247 16.4762 9.50027 16.6903 9.339 16.8238C8.93581 17.1603 8.21842 17.7859 7.82358 18.1362L7.81802 18.1307Z"
                fill="currentColor" />
        </g>
        <defs>
            <clipPath id="clip0_109_65">
                <rect width="64.1666" height="28" fill="white" />
            </clipPath>
        </defs>


    </symbol>

    <symbol id="adobe" viewBox="0 0 78 28">

        <g clip-path="url(#clip0_109_70)">
            <path d="M8.53707 3.5H0V23.9167L8.53707 3.5Z" fill="currentColor" />
            <path d="M14.5439 3.5H23.0699V23.9167L14.5439 3.5Z" fill="currentColor" />
            <path
                d="M11.5404 11.025L16.9741 23.9168H13.4091L11.7851 19.8124H7.80859L11.5404 11.025Z"
                fill="currentColor" />
            <path
                d="M36.998 16.4827L38.0046 19.3691C38.038 19.4414 38.088 19.4748 38.177 19.4748H40.1125C40.2182 19.4748 40.2348 19.4247 40.2182 19.3191L36.2194 8.21254C36.2027 8.12356 36.186 8.10687 36.097 8.10687H33.6944C33.6276 8.10687 33.5887 8.15693 33.5887 8.22923C33.5553 8.8132 33.5053 8.99117 33.433 9.16358L29.868 19.3024C29.8513 19.4248 29.8902 19.4748 29.9904 19.4748H31.72C31.8257 19.4748 31.8757 19.4414 31.9147 19.3358L32.8657 16.4827H36.998ZM33.4163 14.5973C33.9391 13.0178 34.6287 10.9933 34.9068 9.83653H34.9235C35.2683 11.049 36.0803 13.4516 36.4474 14.5973H33.4163Z"
                fill="currentColor" />
            <path
                d="M45.3587 19.6467C46.3987 19.6467 47.5055 19.4576 48.6289 18.9738C48.7179 18.9404 48.7346 18.9015 48.7346 18.818C48.7012 18.5066 48.6623 18.0561 48.6623 17.7113V7.25544C48.6623 7.1887 48.6623 7.15533 48.5789 7.15533H46.6935C46.6212 7.15533 46.5878 7.1887 46.5878 7.27769V10.8204C46.293 10.7871 46.0873 10.7704 45.8425 10.7704C42.8003 10.7704 40.9316 12.7781 40.9316 15.2864C40.9316 18.1951 42.8504 19.6467 45.3587 19.6467ZM46.5878 17.7113C46.2764 17.8114 45.9315 17.8503 45.5811 17.8503C44.2019 17.8503 43.0729 17.0717 43.0729 15.1807C43.0729 13.5067 44.2352 12.5167 45.7758 12.5167C46.0873 12.5167 46.3598 12.5501 46.5878 12.6391V17.7113Z"
                fill="currentColor" />
            <path
                d="M54.7485 10.7712C52.1512 10.7712 50.5439 12.7623 50.5439 15.2205C50.5439 17.4174 51.8231 19.6476 54.7096 19.6476C57.1511 19.6476 58.8641 17.8512 58.8641 15.1649C58.8641 12.7957 57.4125 10.7712 54.7485 10.7712ZM54.6428 12.5176C56.1111 12.5176 56.734 13.7801 56.734 15.2205C56.734 17.0002 55.8163 17.8845 54.7485 17.8845C53.4304 17.8845 52.6518 16.7778 52.6518 15.1816C52.6518 13.5409 53.4805 12.5176 54.6428 12.5176Z"
                fill="currentColor" />
            <path
                d="M60.8138 7.15533C60.7415 7.15533 60.6914 7.1887 60.6914 7.27769V19.1128C60.6914 19.1629 60.7415 19.2518 60.8138 19.2685C61.6424 19.5244 62.51 19.6467 63.4055 19.6467C65.9694 19.6467 68.461 18.0561 68.461 14.8526C68.461 12.5334 66.8703 10.7704 64.3787 10.7704C63.8059 10.7704 63.272 10.8594 62.8048 11.0151L62.7826 7.29437C62.7826 7.17202 62.7492 7.15533 62.6268 7.15533H60.8138ZM66.3309 15.0639C66.3309 16.9827 65.0183 17.8837 63.6001 17.8837C63.3054 17.8837 63.044 17.867 62.8048 17.7947V12.7448C63.0773 12.6391 63.4055 12.5501 64.0117 12.5501C65.3798 12.5501 66.3309 13.4177 66.3309 15.0639Z"
                fill="currentColor" />
            <path
                d="M75.4978 15.6877C76.3431 15.6877 77.0383 15.671 77.2775 15.6154C77.3665 15.5987 77.3998 15.5653 77.4165 15.493C77.4666 15.304 77.4888 14.9091 77.4888 14.4252C77.4888 12.779 76.4989 10.7712 73.9405 10.7712C71.3266 10.7712 69.875 12.9013 69.875 15.304C69.875 17.434 70.9984 19.6476 74.1463 19.6476C75.3254 19.6476 76.0873 19.4585 76.7436 19.147C76.8103 19.1137 76.8437 19.058 76.8437 18.9579V17.5175C76.8437 17.434 76.7936 17.4174 76.7436 17.4507C76.0873 17.7288 75.3754 17.8679 74.5968 17.8679C72.8338 17.8679 72.0329 16.8946 71.9828 15.6877H75.4978ZM71.9828 14.1972C72.1219 13.3518 72.6558 12.4342 73.8515 12.4342C75.1696 12.4342 75.5145 13.5409 75.5145 14.0415C75.5145 14.0582 75.5145 14.1305 75.5145 14.1805C75.4422 14.1972 75.2197 14.1972 74.5634 14.1972H71.9828Z"
                fill="currentColor" />
        </g>
        <defs>
            <clipPath id="clip0_109_70">
                <rect width="77.5833" height="28" fill="white" />
            </clipPath>
        </defs>

    </symbol>

    <symbol id="notion" viewBox="0 0 76 28">

        <g clip-path="url(#clip0_109_81)">
            <path
                d="M26.2125 20.2851V11.7946H26.3637L32.5439 20.2851H34.4888V7.81675H32.3278V16.2858H32.1766L25.9964 7.81675H24.0515V20.2851H26.2125ZM40.6042 20.4776C43.4566 20.4776 45.2069 18.6383 45.2069 15.5587C45.2069 12.5004 43.4566 10.6398 40.6042 10.6398C37.7733 10.6398 36.0014 12.5004 36.0014 15.5587C36.023 18.6383 37.7517 20.4776 40.6042 20.4776ZM40.6042 18.6811C39.0915 18.6811 38.2271 17.5476 38.2271 15.5587C38.2271 13.5911 39.0915 12.4362 40.6042 12.4362C42.1168 12.4362 42.9812 13.5911 42.9812 15.5587C42.9812 17.5476 42.1168 18.6811 40.6042 18.6811ZM47.1733 8.52251V10.8964H45.6607V12.6073H47.1733V17.7615C47.1733 19.6007 48.0377 20.3279 50.2418 20.3279C50.6524 20.3279 51.063 20.2851 51.3871 20.2209V18.5528C51.1278 18.5742 50.9549 18.5956 50.6524 18.5956C49.7448 18.5956 49.3343 18.1892 49.3343 17.2482V12.6073H51.3871V10.8964H49.3343V8.52251H47.1733ZM52.6837 20.2851H54.8446V10.8323H52.6837V20.2851ZM53.7641 9.27103C54.4772 9.27103 55.0607 8.6936 55.0607 7.98784C55.0607 7.2607 54.4772 6.68327 53.7641 6.68327C53.051 6.68327 52.4676 7.2607 52.4676 7.98784C52.4676 8.6936 53.051 9.27103 53.7641 9.27103ZM60.7655 20.4776C63.6179 20.4776 65.3683 18.6383 65.3683 15.5587C65.3683 12.5004 63.6179 10.6398 60.7655 10.6398C57.9347 10.6398 56.1628 12.5004 56.1628 15.5587C56.1628 18.6383 57.8915 20.4776 60.7655 20.4776ZM60.7655 18.6811C59.2529 18.6811 58.3885 17.5476 58.3885 15.5587C58.3885 13.5911 59.2529 12.4362 60.7655 12.4362C62.2565 12.4362 63.1425 13.5911 63.1425 15.5587C63.1209 17.5476 62.2565 18.6811 60.7655 18.6811ZM66.6432 20.2851H68.8041V14.7888C68.8041 13.3986 69.6253 12.5218 70.9002 12.5218C72.2184 12.5218 72.8234 13.2489 72.8234 14.6818V20.2851H74.9843V14.1685C74.9843 11.9016 73.8175 10.6398 71.6998 10.6398C70.2735 10.6398 69.3227 11.2814 68.8689 12.3507H68.7177V10.8323H66.6216C66.6432 10.8323 66.6432 20.2851 66.6432 20.2851Z"
                fill="currentColor" />
            <path fill-rule="evenodd" clip-rule="evenodd"
                d="M3.33203 7.01872C3.96097 7.52611 4.18846 7.48605 5.36604 7.40594L16.4594 6.73833C16.7003 6.73833 16.4996 6.49799 16.4193 6.47128L14.5726 5.14942C14.2247 4.88238 13.743 4.56192 12.8464 4.64204L2.1143 5.42981C1.72623 5.46987 1.64594 5.67015 1.80652 5.81703L3.33203 7.01872ZM4.00112 9.59569V21.2388C4.00112 21.8663 4.30889 22.0933 5.01812 22.0533L17.2088 21.3456C17.918 21.3056 17.9983 20.8783 17.9983 20.3709V8.80792C17.9983 8.30053 17.7976 8.02014 17.3694 8.06019L4.63005 8.80792C4.16169 8.84797 4.00112 9.08831 4.00112 9.59569ZM16.0312 10.2232C16.1115 10.5704 16.0312 10.9309 15.6833 10.971L15.0945 11.0911V19.6899C14.586 19.957 14.1176 20.1172 13.7162 20.1172C13.0873 20.1172 12.9267 19.9169 12.4583 19.3294L8.61779 13.3076V19.1291L9.83552 19.3962C9.83552 19.3962 9.83552 20.1039 8.85866 20.1039L6.15556 20.2641C6.07527 20.1039 6.15556 19.7166 6.4232 19.6365L7.13242 19.4362V11.7454L6.15556 11.6653C6.07527 11.3181 6.276 10.8107 6.82465 10.7707L9.72846 10.5704L13.7296 16.659V11.2781L12.7126 11.1579C12.6323 10.7306 12.9534 10.4102 13.3415 10.3701L16.0312 10.2232ZM1.21773 4.36164L12.3914 3.54716C13.7563 3.42699 14.1176 3.5071 14.9741 4.13465L18.5336 6.63151C19.1224 7.05878 19.3231 7.17895 19.3231 7.64628V21.359C19.3231 22.2135 19.0153 22.7209 17.918 22.801L4.95121 23.5888C4.12155 23.6288 3.73348 23.5087 3.30527 22.9612L0.669083 19.5564C0.200725 18.9289 0 18.4615 0 17.9141V5.72356C0 5.0159 0.32116 4.44175 1.21773 4.36164Z"
                fill="currentColor" />
        </g>
        <defs>
            <clipPath id="clip0_109_81">
                <rect width="75.25" height="28" fill="white" />
            </clipPath>
        </defs>

    </symbol>

    <symbol id="netflix" viewBox="0 0 65 28">

        <g clip-path="url(#clip0_109_85)">
            <path
                d="M8.90379 22.2039C7.92971 22.3749 6.93848 22.4262 5.91312 22.5628L2.7856 13.4027V22.9559C1.81152 23.0584 0.922863 23.1952 0 23.3319V5.83188H2.59773L6.15234 15.7612V5.83188H8.90379V22.2039ZM14.2871 12.2406C15.3468 12.2406 16.9703 12.1893 17.9444 12.1893V14.9236C16.7309 14.9236 15.3125 14.9236 14.2871 14.9749V19.0423C15.8936 18.9398 17.5001 18.803 19.1235 18.7517V21.3834L11.5527 21.9817V5.83188H19.1235V8.56626H14.2871V12.2406ZM29.292 8.56632H26.4551V21.1444C25.5322 21.1444 24.6093 21.1444 23.7208 21.1785V8.56632H20.8839V5.83188H29.2921L29.292 8.56632ZM33.7353 12.0526H37.478V14.787H33.7353V20.9906H31.052V5.83188H38.6914V8.56626H33.7353V12.0526ZM43.1347 18.598C44.6899 18.6321 46.2621 18.7519 47.7832 18.8372V21.5374C45.3394 21.3835 42.8955 21.2299 40.4004 21.1785V5.83188H43.1347V18.598ZM50.0903 21.7254C50.9619 21.7768 51.8847 21.8281 52.7734 21.9304V5.83188H50.0903V21.7254ZM64.7535 5.83188L61.2842 14.1547L64.7535 23.3319C63.728 23.1952 62.7026 23.0072 61.6772 22.8362L59.7119 17.7778L57.7126 22.4262C56.7212 22.2552 55.7642 22.2039 54.7731 22.0672L58.2936 14.052L55.1148 5.83188H58.0541L59.8486 10.4291L61.7627 5.83188H64.7535V5.83188Z"
                fill="currentColor" />
        </g>
        <defs>
            <clipPath id="clip0_109_85">
                <rect width="64.75" height="28" fill="white" />
            </clipPath>
        </defs>

    </symbol>

</svg>